<?xml version="1.0" encoding="UTF-8"?>
<svg width="512" height="512" viewBox="0 0 512 512" xmlns="http://www.w3.org/2000/svg">
  <path d="M256 0c141.385 0 256 114.615 256 256S397.385 512 256 512 0 397.385 0 256 114.615 0 256 0z" fill="#4F46E5"/>
  <circle cx="184" cy="208" r="24" fill="white"/>
  <circle cx="328" cy="208" r="24" fill="white"/>
  <path d="M176 296c0 44.183 35.817 80 80 80s80-35.817 80-80" stroke="white" stroke-width="32" stroke-linecap="round"/>
  <path d="M256 0c141.385 0 256 114.615 256 256S397.385 512 256 512 0 397.385 0 256 114.615 0 256 0z" fill="#4F46E5"/>
  <path d="M128 128h256v256H128z" fill="none"/>
  <path d="M256 64c106.039 0 192 85.961 192 192s-85.961 192-192 192S64 362.039 64 256 149.961 64 256 64z" fill="none"/>
</svg>